<?xml version="1.0" standalone="no"?><!DOCTYPE svg PUBLIC "-//W3C//DTD SVG 1.1//EN" "http://www.w3.org/Graphics/SVG/1.1/DTD/svg11.dtd"><svg t="1517814873263" class="icon" style="" viewBox="0 0 1024 1024" version="1.1" xmlns="http://www.w3.org/2000/svg" p-id="617" xmlns:xlink="http://www.w3.org/1999/xlink" width="128" height="128"><defs><style type="text/css">@font-face { font-family: "Roboto Condensed"; src: url("https://fonts.googleapis.com/css?family=Roboto+Condensed:300,300i,400,400i,700,700i"); }
</style></defs><path d="M281.739732 972.652542c-8.121981 0-11.56643-3.063779-13.452383-5.368264-3.523243-4.328585-5.244444-8.827039-5.244444-13.727653 0-5.087878 1.608637-9.682523 4.91801-14.048971 0.959861-1.276063 3.796466-5.047969 13.778818-5.047969l135.699612 0c8.325619 0 12.142551 3.251044 14.291494 5.695722 3.777023 4.279467 5.604648 8.655124 5.604648 13.400195 0 4.88731-1.727341 9.384741-5.278213 13.750165-1.068332 1.305739-4.373611 5.346775-14.616906 5.346775L281.739732 972.652542zM283.465027 875.438453c-8.037047-0.576121-13.668301-2.543939-15.882736-5.552459-2.01182-2.737344-4.411473-8.492418-4.411473-20.370956L263.170818 63.951521c0-3.37691 1.190105-6.074346 3.859911-8.744151 2.674922-2.665713 5.385661-3.860934 8.775874-3.860934l157.492964 0c58.678424 0 113.778346 11.078313 163.766854 32.9259 50.082652 21.88852 94.105285 51.993165 130.845047 89.475847 36.749996 37.508265 65.900919 81.690534 86.640266 131.316791 20.707624 49.603745 31.208792 102.873995 31.208792 158.327982 0 55.469336-10.500145 108.739587-31.209816 158.331052-20.738323 49.638537-49.888224 93.819782-86.639243 131.313721-36.732599 37.490869-80.754209 67.599607-130.845047 89.491197-49.964972 21.837354-105.063871 32.909527-163.766854 32.909527L283.465027 875.438453zM300.340369 837.246619l132.865053 0c52.292993 0 101.992929-10.105149 147.722436-30.03506 45.62206-19.891026 85.812411-47.434336 119.456672-81.866542 33.596166-34.384112 60.302411-74.495668 79.376839-119.222335 19.130709-44.858674 28.831652-92.847641 28.831652-142.634558 0-52.982702-9.695826-102.789061-28.816303-148.035568-19.097964-45.192272-45.843094-85.150332-79.491449-118.765941-33.658587-33.608445-73.870428-60.3239-119.519094-79.404468-45.684482-19.088754-95.330182-28.767184-147.561777-28.767184L300.340369 88.514963 300.340369 837.246619zM375.388623 684.656315c-5.086855 0-9.695826-1.609661-14.089903-4.922103-1.238201-0.933255-5.007037-3.773953-5.007037-13.774725l0-431.323563c0-8.326643 3.247974-12.149714 5.690606-14.300704 4.276397-3.764744 8.661264-5.595438 13.406335-5.595438 4.88731 0 9.376555 1.724271 13.722536 5.270027 1.329275 1.084705 5.373381 4.384867 5.373381 14.626115l0 431.323563c0 8.119935-3.066849 11.56029-5.373381 13.443174C384.77848 682.938184 380.289236 684.656315 375.388623 684.656315zM197.333344 527.146978c-5.086855 0-9.695826-1.609661-14.089903-4.922103-1.238201-0.933255-5.007037-3.773953-5.007037-13.758352l0-99.356892c0-8.326643 3.247974-12.149714 5.690606-14.300704 4.276397-3.764744 8.661264-5.595438 13.406335-5.595438 4.88731 0 9.376555 1.724271 13.722536 5.270027 1.329275 1.084705 5.373381 4.384867 5.373381 14.626115l0 99.356892c0 8.104585-3.066849 11.544941-5.373381 13.426801C206.723202 525.427824 202.233957 527.146978 197.333344 527.146978zM652.480498 478.395648c-5.820566 0-10.151197-1.609661-13.627369-5.066389-3.447519-3.428076-5.053086-7.722892-5.053086-13.517875 0-5.783727 1.604544-10.07445 5.053086-13.501502 3.487428-3.467985 7.818059-5.082762 13.627369-5.082762s10.139941 1.6158 13.627369 5.082762c3.458775 3.438309 5.068436 7.729032 5.068436 13.501502 0 5.783727-1.609661 10.079566-5.068436 13.517875C662.631696 476.785987 658.302087 478.395648 652.480498 478.395648z" p-id="618"></path></svg>